<svg version="1.1" xmlns="http://www.w3.org/2000/svg" xmlns:xlink="http://www.w3.org/1999/xlink" width="375.06551" height="108.72605" viewBox="0,0,375.06551,108.72605"><defs><linearGradient x1="240" y1="125.63697" x2="240" y2="234.36303" gradientUnits="userSpaceOnUse" id="color-1"><stop offset="0" stop-color="#f79810"/><stop offset="1" stop-color="#f8310e"/></linearGradient><linearGradient x1="289.48483" y1="203.51806" x2="289.48483" y2="225.11751" gradientUnits="userSpaceOnUse" id="color-2"><stop offset="0" stop-color="#ffffff"/><stop offset="1" stop-color="#dbdbdb"/></linearGradient><linearGradient x1="166.75309" y1="203.51806" x2="166.75309" y2="225.11751" gradientUnits="userSpaceOnUse" id="color-3"><stop offset="0" stop-color="#ffffff"/><stop offset="1" stop-color="#dbdbdb"/></linearGradient><linearGradient x1="233.04509" y1="203.84447" x2="233.04509" y2="224.79355" gradientUnits="userSpaceOnUse" id="color-4"><stop offset="0" stop-color="#ffffff"/><stop offset="1" stop-color="#dbdbdb"/></linearGradient><linearGradient x1="333.418" y1="203.84447" x2="333.418" y2="224.79355" gradientUnits="userSpaceOnUse" id="color-5"><stop offset="0" stop-color="#ffffff"/><stop offset="1" stop-color="#dbdbdb"/></linearGradient><linearGradient x1="210.68257" y1="203.84202" x2="210.68257" y2="224.7911" gradientUnits="userSpaceOnUse" id="color-6"><stop offset="0" stop-color="#ffffff"/><stop offset="1" stop-color="#dbdbdb"/></linearGradient><linearGradient x1="146.2849" y1="203.51806" x2="146.2849" y2="225.11997" gradientUnits="userSpaceOnUse" id="color-7"><stop offset="0" stop-color="#ffffff"/><stop offset="1" stop-color="#dbdbdb"/></linearGradient><linearGradient x1="188.47107" y1="203.84447" x2="188.47107" y2="225.11996" gradientUnits="userSpaceOnUse" id="color-8"><stop offset="0" stop-color="#ffffff"/><stop offset="1" stop-color="#dbdbdb"/></linearGradient><linearGradient x1="311.20527" y1="203.84447" x2="311.20527" y2="225.11996" gradientUnits="userSpaceOnUse" id="color-9"><stop offset="0" stop-color="#ffffff"/><stop offset="1" stop-color="#dbdbdb"/></linearGradient><linearGradient x1="253.73182" y1="203.51805" x2="253.73182" y2="225.1175" gradientUnits="userSpaceOnUse" id="color-10"><stop offset="0" stop-color="#ffffff"/><stop offset="1" stop-color="#dbdbdb"/></linearGradient><linearGradient x1="272.14605" y1="203.84447" x2="272.14605" y2="224.79355" gradientUnits="userSpaceOnUse" id="color-11"><stop offset="0" stop-color="#ffffff"/><stop offset="1" stop-color="#dbdbdb"/></linearGradient><linearGradient x1="276.20413" y1="134.88003" x2="276.20413" y2="196.20893" gradientUnits="userSpaceOnUse" id="color-12"><stop offset="0" stop-color="#ffffff"/><stop offset="1" stop-color="#dbdbdb"/></linearGradient><linearGradient x1="238.97229" y1="138.9501" x2="238.97229" y2="196.08137" gradientUnits="userSpaceOnUse" id="color-13"><stop offset="0" stop-color="#ffffff"/><stop offset="1" stop-color="#dbdbdb"/></linearGradient><linearGradient x1="233.04654" y1="142.32158" x2="233.04654" y2="196.16794" gradientUnits="userSpaceOnUse" id="color-14"><stop offset="0" stop-color="#ffffff"/><stop offset="1" stop-color="#dbdbdb"/></linearGradient><linearGradient x1="227.09119" y1="148.16698" x2="227.09119" y2="196.14059" gradientUnits="userSpaceOnUse" id="color-15"><stop offset="0" stop-color="#ffffff"/><stop offset="1" stop-color="#dbdbdb"/></linearGradient><linearGradient x1="221.18293" y1="147.14491" x2="221.18293" y2="196.11175" gradientUnits="userSpaceOnUse" id="color-16"><stop offset="0" stop-color="#ffffff"/><stop offset="1" stop-color="#dbdbdb"/></linearGradient><linearGradient x1="215.3195" y1="146.44177" x2="215.3195" y2="196.12693" gradientUnits="userSpaceOnUse" id="color-17"><stop offset="0" stop-color="#ffffff"/><stop offset="1" stop-color="#dbdbdb"/></linearGradient><linearGradient x1="209.50163" y1="147.61115" x2="209.50163" y2="196.09807" gradientUnits="userSpaceOnUse" id="color-18"><stop offset="0" stop-color="#ffffff"/><stop offset="1" stop-color="#dbdbdb"/></linearGradient><linearGradient x1="203.72937" y1="150.12304" x2="203.72937" y2="196.12845" gradientUnits="userSpaceOnUse" id="color-19"><stop offset="0" stop-color="#ffffff"/><stop offset="1" stop-color="#dbdbdb"/></linearGradient><linearGradient x1="198.00191" y1="155.57512" x2="198.00191" y2="196.09961" gradientUnits="userSpaceOnUse" id="color-20"><stop offset="0" stop-color="#ffffff"/><stop offset="1" stop-color="#dbdbdb"/></linearGradient><linearGradient x1="192.32232" y1="164.68416" x2="192.32232" y2="195.97506" gradientUnits="userSpaceOnUse" id="color-21"><stop offset="0" stop-color="#ffffff"/><stop offset="1" stop-color="#dbdbdb"/></linearGradient><linearGradient x1="186.68604" y1="163.68487" x2="186.68604" y2="195.73056" gradientUnits="userSpaceOnUse" id="color-22"><stop offset="0" stop-color="#ffffff"/><stop offset="1" stop-color="#dbdbdb"/></linearGradient><linearGradient x1="181.09533" y1="164.21792" x2="181.09533" y2="195.1489" gradientUnits="userSpaceOnUse" id="color-23"><stop offset="0" stop-color="#ffffff"/><stop offset="1" stop-color="#dbdbdb"/></linearGradient><linearGradient x1="175.55021" y1="166.70401" x2="175.55021" y2="192.93011" gradientUnits="userSpaceOnUse" id="color-24"><stop offset="0" stop-color="#ffffff"/><stop offset="1" stop-color="#dbdbdb"/></linearGradient><linearGradient x1="170.32721" y1="171.55922" x2="170.32721" y2="188.21612" gradientUnits="userSpaceOnUse" id="color-25"><stop offset="0" stop-color="#ffffff"/><stop offset="1" stop-color="#dbdbdb"/></linearGradient></defs><g transform="translate(-52.46724,-125.63697)"><g data-paper-data="{&quot;isPaintingLayer&quot;:true}" fill-rule="nonzero" stroke="none" stroke-width="1" stroke-linecap="butt" stroke-linejoin="miter" stroke-miterlimit="10" stroke-dasharray="" stroke-dashoffset="0" style="mix-blend-mode: normal"><path d="M427.53276,217.25029c0,9.45029 -7.66444,17.11274 -17.11274,17.11274h-340.84202c-9.45029,0 -17.11075,-7.66444 -17.11075,-17.11274v-74.50256c0,-9.45029 7.66046,-17.11075 17.11075,-17.11075h340.84003c9.45427,0 17.11274,7.66046 17.11274,17.11075v74.50256z" fill="url(#color-1)"/><path d="M298.58575,214.31901c0,6.37357 -3.38354,10.7985 -9.0997,10.7985c-5.72107,0 -9.10215,-4.42493 -9.10215,-10.7985c0,-6.37357 3.38108,-10.80095 9.10215,-10.80095c5.71616,0 9.0997,4.42738 9.0997,10.80095zM294.27163,214.32147c0,-3.74021 -1.40694,-6.64353 -4.78556,-6.64353c-3.38599,0 -4.79048,2.90332 -4.79048,6.64353c0,3.73775 1.40449,6.64107 4.79048,6.64107c3.37862,0 4.78556,-2.90332 4.78556,-6.64107z" fill="url(#color-2)"/><path d="M175.85278,214.31901c0,6.37357 -3.38599,10.7985 -9.10215,10.7985c-5.71616,0 -9.09724,-4.42493 -9.09724,-10.7985c0,-6.37357 3.38108,-10.80095 9.09724,-10.80095c5.71616,0 9.10215,4.42738 9.10215,10.80095zM171.5411,214.32147c0,-3.74021 -1.40449,-6.64353 -4.79048,-6.64353c-3.38108,0 -4.79048,2.90332 -4.79048,6.64353c0,3.73775 1.40939,6.64107 4.79048,6.64107c3.38599,0 4.79048,-2.90332 4.79048,-6.64107z" fill="url(#color-3)"/><path d="M241.53217,214.31901c0,7.36015 -5.33066,10.47454 -10.72026,10.47454h-6.2539v-20.94908h6.55591c5.98625,0 10.41825,2.81252 10.41825,10.47454zM237.22295,214.31901c0,-4.28013 -1.82682,-6.40301 -6.2588,-6.40301h-2.21477v12.80848h2.06253c4.40252,0 6.41104,-2.57446 6.41104,-6.40546z" fill="url(#color-4)"/><path d="M341.90385,214.31901c0,7.36015 -5.32576,10.47454 -10.7178,10.47454h-6.2539v-20.94908h6.55345c5.98871,0 10.41825,2.81252 10.41825,10.47454zM337.59218,214.31901c0,-4.28013 -1.82682,-6.40301 -6.2539,-6.40301h-2.21722v12.80848h2.06499c4.40007,0 6.40612,-2.57446 6.40613,-6.40546z" fill="url(#color-5)"/><path d="M215.03844,212.70415v-8.86213h4.13243v20.94908h-3.74202l-7.69521,-11.42923c-0.50581,-0.78043 -1.19823,-1.82838 -1.46587,-2.36585c0,0.77798 0.05893,3.40889 0.05893,4.57709v9.21799h-4.13243v-20.94908h4.00967l7.42758,11.07337c0.50826,0.78043 1.19578,1.82593 1.46587,2.36585c0,-0.77798 -0.05893,-3.40889 -0.05893,-4.57709z" fill="url(#color-6)"/><path d="M154.47364,218.44944c0,3.97826 -2.51433,6.67053 -8.2354,6.67053c-3.49894,0 -6.55591,-1.46516 -8.14209,-3.79911l3.02259,-2.69472c1.46832,1.71058 3.35407,2.39776 5.36013,2.39776c2.47995,0 3.65117,-0.68963 3.65117,-2.27505c0,-1.34736 -0.71943,-1.94864 -4.67016,-2.84442c-3.85988,-0.89579 -6.55591,-2.12289 -6.55591,-6.25086c0,-3.80156 3.35162,-6.13551 7.48651,-6.13551c3.26077,0 5.65477,1.2271 7.63137,3.29109l-3.02259,2.93032c-1.34556,-1.37681 -2.84335,-2.15479 -4.76101,-2.15479c-2.24423,0 -2.99313,0.95959 -2.99313,1.88729c0,1.31546 0.89868,1.73267 4.22083,2.5131c3.32461,0.77798 7.0077,1.91428 7.0077,6.46438z" fill="url(#color-7)"/><path d="M192.768,215.60747v-11.763h4.19137v11.70409c0,6.06924 -3.17483,9.5714 -8.50304,9.5714c-5.05811,0 -8.47357,-3.41134 -8.47357,-9.51249v-11.763h4.19382v11.70409c0,3.34999 1.61565,5.47533 4.27975,5.47533c2.66165,0 4.31168,-2.06644 4.31168,-5.41643z" fill="url(#color-8)"/><path d="M315.49852,203.84447h4.19382v11.70409c0,6.06924 -3.17237,9.5714 -8.50058,9.5714c-5.06058,0 -8.47357,-3.41134 -8.47357,-9.51249v-11.763h4.19137v11.70409c0,3.34999 1.6132,5.47533 4.28222,5.47533c2.66411,0 4.30676,-2.06644 4.30676,-5.41643z" fill="url(#color-9)"/><path d="M249.55395,214.31901c0,3.7672 1.82682,6.64107 4.96973,6.64107c1.88575,0 2.99558,-0.80743 4.10297,-2.66527l3.53086,2.09589c-1.43641,2.96222 -3.95073,4.7268 -7.75414,4.7268c-5.47799,0 -9.15863,-4.18687 -9.15863,-10.7985c0,-6.37357 3.83533,-10.80095 9.30841,-10.80095c3.95073,0 6.3472,1.91674 7.66574,4.63845l-3.8918,1.79403c-0.7489,-1.43571 -1.94713,-2.27505 -3.83287,-2.27505c-3.14046,0 -4.94271,2.75607 -4.94026,6.64353z" fill="url(#color-10)"/><path d="M270.03932,220.66067h8.40482v4.13288h-12.59618v-20.94908h4.19137z" fill="url(#color-11)"/><path d="M309.91624,178.83826c0,9.59351 -7.78095,17.37067 -17.3776,17.37067c-0.30996,0 -48.12608,-0.0243 -48.17014,-0.02885c-1.03776,-0.10479 -1.86281,-0.99018 -1.87648,-2.05326v-55.12812c0.01215,-1.01296 0.36162,-1.53539 1.67288,-2.04263c3.37463,-1.30455 7.19597,-2.07604 11.11607,-2.07604c16.02076,0 29.15461,12.28006 30.53728,27.93462c2.06945,-0.86717 4.34098,-1.34859 6.72191,-1.34859c9.59665,0 17.37608,7.77868 17.37608,17.37219z" fill="url(#color-12)"/><path d="M240.85257,140.85606l0.85239,39.13185l-0.85239,14.2027v-0.01671c-0.01519,1.05245 -0.87214,1.90747 -1.91295,1.90747c-1.04384,0 -1.90079,-0.85502 -1.91447,-1.89228l-0.78554,-14.20119l0.78402,-39.12882c0.01519,-1.05245 0.87214,-1.90898 1.91599,-1.90898c1.0408,0 1.89776,0.85654 1.91295,1.90594z" fill="url(#color-13)"/><path d="M231.21337,194.3926c0,0 -0.67614,-14.39861 -0.67614,-14.4214l0.67614,-35.86365c0.01519,-0.98563 0.81897,-1.78597 1.79291,-1.78597c0.97243,0 1.7762,0.80187 1.79291,1.78445l0.75667,35.87732l-0.75667,14.40014c-0.01824,0.9841 -0.82049,1.78445 -1.79291,1.78445c-0.97243,0 -1.77772,-0.80034 -1.79291,-1.77534z" fill="url(#color-14)"/><path d="M228.71848,149.82994l0.83872,30.15189l-0.83872,14.50644v-0.01215c-0.02127,0.93551 -0.75363,1.66447 -1.67136,1.66447c-0.92077,0 -1.65616,-0.73049 -1.6744,-1.65384l-0.74755,-14.50644l0.74755,-30.14734c0.01824,-0.93551 0.75515,-1.66599 1.6744,-1.66599c0.91773,0 1.65009,0.73049 1.67136,1.66295z" fill="url(#color-15)"/><path d="M219.5807,194.57636l-0.82049,-14.59756l0.81897,-31.29091c0.01824,-0.86565 0.70045,-1.54298 1.55284,-1.54298c0.84631,0 1.52854,0.67733 1.55133,1.54298l0.92229,31.28939l-0.92077,14.6006v-0.01063c-0.02279,0.86565 -0.70501,1.5445 -1.55133,1.5445c-0.85239,0 -1.53461,-0.67885 -1.55284,-1.53539z" fill="url(#color-16)"/><path d="M216.6938,194.70848c-0.02583,0.79427 -0.65183,1.41845 -1.42977,1.41845c-0.77946,0 -1.4085,-0.62418 -1.42977,-1.41389l-0.8919,-14.7388l0.89038,-32.10947c0.02127,-0.79883 0.65031,-1.423 1.4313,-1.423c0.77643,0 1.40546,0.6257 1.42977,1.423l1.00282,32.11099l-1.00282,14.73121v0.00759z" fill="url(#color-17)"/><path d="M208.13035,194.80416l-0.96179,-14.83144c0,0 0.96179,-31.06007 0.96179,-31.06158c0.02279,-0.72897 0.59865,-1.29999 1.31126,-1.29999c0.70653,0 1.28087,0.5695 1.30974,1.29847l1.08335,31.06462l-1.08487,14.82536c-0.02887,0.72897 -0.60321,1.29847 -1.30974,1.29847c-0.71109,0 -1.28695,-0.57102 -1.30974,-1.29392z" fill="url(#color-18)"/><path d="M202.47356,194.95603l-1.03472,-14.98483c0,0 1.03321,-28.66814 1.03321,-28.66966c0.02735,-0.66063 0.55003,-1.1785 1.19123,-1.1785c0.63512,0 1.1578,0.51635 1.1897,1.1785l1.16691,28.66966l-1.16691,14.97875c-0.03039,0.66063 -0.55459,1.1785 -1.1897,1.1785c-0.64119,0 -1.16387,-0.51787 -1.1897,-1.17242z" fill="url(#color-19)"/><path d="M198.99865,156.63363l1.25048,23.33302l-1.25048,15.08051v-0.00455c-0.03343,0.59077 -0.50293,1.057 -1.06967,1.057c-0.56978,0 -1.03928,-0.46471 -1.06815,-1.05397l-1.10614,-15.07898l1.10614,-23.33302c0.02735,-0.59229 0.49837,-1.05852 1.06815,-1.05852c0.56674,0 1.03624,0.46624 1.06967,1.05852z" fill="url(#color-20)"/><path d="M191.29367,195.04108l-1.17451,-15.08051l1.17451,-14.3409c0.03191,-0.53306 0.43911,-0.93551 0.94963,-0.93551c0.50445,0 0.91165,0.39942 0.94812,0.92943l1.33405,14.34698l-1.33405,15.08202c-0.03798,0.53002 -0.44519,0.93247 -0.94812,0.93247c-0.51053,0 -0.91621,-0.40245 -0.94963,-0.93399z" fill="url(#color-21)"/><path d="M187.42979,164.49736l1.4161,15.46321l-1.4161,14.95749c-0.03798,0.4632 -0.39505,0.8125 -0.82808,0.8125c-0.43759,0 -0.79617,-0.34929 -0.8296,-0.8125l-1.24592,-14.95749l1.24592,-15.46017c0.03495,-0.46624 0.39201,-0.81553 0.8296,-0.81553c0.43304,0 0.7901,0.34929 0.82808,0.8125z" fill="url(#color-22)"/><path d="M180.29763,194.45486l-1.31886,-14.49733c0,0 1.31886,-15.04557 1.31886,-15.04709c0.03798,-0.40093 0.33579,-0.69252 0.70805,-0.69252c0.3677,0 0.66551,0.29007 0.70957,0.69252l1.49663,15.04709l-1.49815,14.50037c-0.04254,0.40093 -0.34035,0.691 -0.70805,0.691c-0.37378,0 -0.67158,-0.29158 -0.70805,-0.69404z" fill="url(#color-23)"/><path d="M177.62194,179.95602l-1.5802,12.40459c-0.04862,0.33563 -0.29021,0.5695 -0.5865,0.5695c-0.30085,0 -0.54851,-0.23995 -0.58802,-0.57254l-1.38875,-12.40155c0,0 1.38875,-12.67947 1.38875,-12.68251c0.04102,-0.32955 0.28869,-0.5695 0.58802,-0.5695c0.29781,0 0.53939,0.23236 0.58802,0.5695z" fill="url(#color-24)"/><path d="M170.79671,172.11051l1.22465,7.84551l-1.22465,7.71186c-0.04558,0.32348 -0.27805,0.54824 -0.5637,0.54824c-0.29477,0 -0.52876,-0.22629 -0.56674,-0.55128l-1.03321,-7.70883l1.03321,-7.84399c0.03798,-0.325 0.27198,-0.5528 0.56674,-0.5528c0.28413,0 0.51964,0.2278 0.5637,0.55128z" fill="url(#color-25)"/></g></g></svg>