<svg version="1.1" xmlns="http://www.w3.org/2000/svg" xmlns:xlink="http://www.w3.org/1999/xlink" width="375.06551" height="108.72605" viewBox="0,0,375.06551,108.72605"><defs><linearGradient x1="240" y1="125.63698" x2="240" y2="234.36303" gradientUnits="userSpaceOnUse" id="color-1"><stop offset="0" stop-color="#855cd6"/><stop offset="1" stop-color="#774cb1"/></linearGradient><linearGradient x1="240" y1="138.60295" x2="240" y2="221.39705" gradientUnits="userSpaceOnUse" id="color-2"><stop offset="0" stop-color="#ffffff"/><stop offset="1" stop-color="#dbdbdb"/></linearGradient><linearGradient x1="240.15934" y1="150.33486" x2="240.15934" y2="209.66508" gradientUnits="userSpaceOnUse" id="color-3"><stop offset="0" stop-color="#f9a83a"/><stop offset="1" stop-color="#db9732"/></linearGradient><linearGradient x1="239.81434" y1="159.38525" x2="239.81434" y2="202.67778" gradientUnits="userSpaceOnUse" id="color-4"><stop offset="0" stop-color="#ffffff"/><stop offset="1" stop-color="#dbdbdb"/></linearGradient><linearGradient x1="238.42404" y1="157.70919" x2="238.42404" y2="191.25936" gradientUnits="userSpaceOnUse" id="color-5"><stop offset="0" stop-color="#ffffff"/><stop offset="1" stop-color="#dbdbdb"/></linearGradient><linearGradient x1="225.47527" y1="162.06678" x2="225.47527" y2="201.28511" gradientUnits="userSpaceOnUse" id="color-6"><stop offset="0" stop-color="#ffffff"/><stop offset="1" stop-color="#dbdbdb"/></linearGradient></defs><g transform="translate(-52.46725,-125.63698)"><g data-paper-data="{&quot;isPaintingLayer&quot;:true}" fill-rule="nonzero" stroke="none" stroke-width="1" stroke-linecap="butt" stroke-linejoin="miter" stroke-miterlimit="10" stroke-dasharray="" stroke-dashoffset="0" style="mix-blend-mode: normal"><path d="M427.53276,217.25029c0,9.45029 -7.66444,17.11274 -17.11274,17.11274h-340.84202c-9.45029,0 -17.11075,-7.66444 -17.11075,-17.11274v-74.50256c0,-9.45029 7.66046,-17.11075 17.11075,-17.11075h340.84003c9.45427,0 17.11274,7.66046 17.11274,17.11075v74.50256z" fill="url(#color-1)"/><g><path d="M330.89535,219.38586c-2.68159,0.33519 -4.35759,0.33519 -5.02799,0.6704c-1.34081,0.6704 -4.35759,1.34079 -8.04478,1.34079c-4.69278,0 -9.05037,-1.676 -12.73756,-4.35759h-2.68159c-1.00559,0 -1.676,0 -2.68159,-0.33519c-3.68719,1.34081 -7.03918,1.34081 -9.05037,1.34081h-0.6704c-4.69278,0.33519 -9.38557,-0.6704 -13.40797,-2.68159c-2.01119,0.6704 -3.68719,1.00559 -5.69838,1.00559l-12.40237,0.33519c-5.69838,0 -10.72637,-2.01119 -14.74875,-5.69838c-1.676,0 -3.352,-0.33519 -4.69278,-0.6704c-2.01119,2.34638 -4.69278,4.35759 -8.04478,6.03359c-6.36878,3.01678 -13.40797,3.35198 -20.11194,0.6704c-0.6704,-0.33519 -1.676,-0.6704 -2.34638,-1.00559l-7.70959,1.00559h-2.34638c-1.00559,0.33519 -1.676,1.00559 -2.3464,1.34081c-5.02799,2.34638 -9.72078,2.3464 -11.73197,2.3464h-1.676c-5.69838,0 -11.39676,-1.676 -15.75435,-4.69278c-1.34081,0.33519 -3.01678,0.6704 -4.35759,0.6704c-3.01678,2.01119 -6.70397,3.352 -10.72637,3.68719h-1.34081c-11.06156,0 -20.11194,-8.37997 -21.11753,-19.44153v-0.33519c0,-1.676 -0.33519,-5.36319 0,-9.38557c0,-2.01119 0.33519,-5.02799 0.33519,-5.69838c0,-2.68159 0.6704,-5.36319 1.676,-8.04478c-0.6704,-2.68159 -0.33519,-5.36319 0,-8.04478v-1.00559c0.33519,-2.34638 1.00559,-7.03918 3.352,-11.73197c4.35759,-8.04478 12.40237,-13.07277 21.45275,-13.07277c3.01678,-1.676 6.03359,-2.34638 9.38557,-2.34638h1.00559c6.70397,0.33519 12.73756,3.68719 16.42475,9.05037c3.01678,-2.68159 6.70397,-4.35759 10.72637,-5.02799c8.04478,-1.00559 14.74875,-1.34081 20.44713,-0.33519c3.01678,-2.68159 7.03918,-4.69278 11.06156,-5.02799l8.71518,-1.34079h2.68159c5.02799,0 10.05597,2.01119 14.07835,5.36319h0.6704l12.73756,-0.33519c5.36319,0 10.05597,-0.33519 11.06156,-0.33519h1.676c4.69278,0 9.72078,1.676 13.40797,4.69278c3.68719,-2.68159 8.04478,-4.02238 12.73756,-4.02238h4.35759c3.352,-2.01119 7.03918,-3.352 11.06156,-3.352l10.72637,-0.33519h0.33519c11.39678,0 20.78234,9.38557 21.11753,20.78234c0,5.36319 -1.676,10.05597 -5.02799,14.07837v9.72078c3.01678,3.352 4.69278,7.70959 5.02799,12.40237c0.6704,11.39678 -8.04478,21.11753 -19.77675,22.12313z" fill="url(#color-2)"/><path d="M330.22496,207.3187c-4.35759,0.33519 -7.03918,0.6704 -7.70957,1.00559l-0.33519,0.33519c-1.00559,0.33519 -2.34638,1.00559 -4.02238,1.00559c-2.01119,0 -4.35759,-0.6704 -6.03359,-2.34638c-0.6704,-0.6704 -1.34081,-1.34081 -1.676,-2.01119h-7.70957c-1.34081,0 -2.68159,-0.33519 -3.68719,-1.00559c-0.33519,0.33519 -1.00559,0.33519 -1.34081,0.6704c-2.68159,1.34081 -5.02797,1.34081 -6.70397,1.34081h-1.676c-5.02799,0 -9.05037,-1.676 -11.73197,-4.69278c-1.676,1.676 -4.0224,2.68159 -6.36878,2.68159l-12.40237,0.33519c-4.35759,0 -8.37997,-3.352 -9.05037,-7.37438c-1.676,1.00559 -3.352,1.676 -5.36319,1.676c-2.01119,0 -4.02238,-0.6704 -5.69838,-1.676c-0.33519,-0.33519 -0.6704,-0.6704 -1.00559,-0.6704c-1.00559,0.6704 -2.34638,0.6704 -3.68719,0.6704h-1.00559c-1.34081,4.02238 -3.68719,6.70397 -7.37438,8.37997c-1.676,0.6704 -3.68719,1.34081 -5.36319,1.34081c-1.676,0 -3.68719,-0.33519 -5.36319,-1.00559c-1.676,-0.6704 -3.01678,-1.676 -4.02238,-2.68159c-0.6704,0.33519 -1.34079,0.33519 -2.01119,0.6704l-9.72078,1.34081h-1.34081c-1.00559,0 -1.676,0 -2.68159,-0.33519c-1.34081,1.34081 -3.01678,2.01119 -4.35759,2.68159c-2.68159,1.34081 -5.02799,1.34081 -6.70397,1.34081h-1.676c-6.03359,0 -10.72637,-2.68159 -13.40797,-6.36878c-2.68159,1.676 -6.03359,2.68159 -9.05037,2.68159h-2.01119c0,0.33519 -0.33519,0.33519 -0.33519,0.6704c-1.676,1.676 -4.0224,3.01678 -6.36878,3.01678h-0.6704c-4.69278,0 -8.71518,-3.68719 -9.05037,-8.71518v-0.33519c0,-1.676 -0.33519,-4.69278 0,-8.04478c0,-2.34638 0.33519,-6.03359 0.33519,-6.03359c0,-2.34638 1.00559,-4.35759 2.3464,-6.03359c-1.34081,-2.68159 -1.676,-5.69838 -1.00559,-9.05037v-0.6704c0.33519,-2.01119 0.6704,-5.02799 2.01119,-8.04478c2.34638,-4.35759 6.70397,-6.70397 11.73197,-6.70397h2.34638c1.676,-1.34081 3.68719,-2.3464 6.03359,-2.3464c5.02799,0 9.05037,4.35759 9.05037,9.38557v3.68719c1.676,-0.6704 3.68719,-1.00559 5.69838,-1.00559c1.00559,0 1.676,0 2.68159,0.33519c1.34081,-1.676 3.352,-2.68159 5.36319,-3.01678c0.33519,-0.6704 0.6704,-1.00559 1.00559,-1.676c1.34081,-2.01119 3.68719,-3.352 6.03359,-3.68719c2.01119,-0.33519 6.03359,-0.6704 10.72637,-0.6704c5.36319,0 9.72078,0.6704 13.07275,2.34638c1.00559,-3.68719 3.68719,-6.36878 7.70959,-7.03918l8.71518,-1.34081h1.34081c2.68159,0 5.02797,1.00559 6.70397,3.01678c0.6704,0.6704 1.676,2.01119 2.01119,3.01678l0.33519,1.00559c1.676,-1.00559 3.35198,-1.676 5.36319,-1.676l13.07277,-0.33519c6.36878,0 12.06716,-0.33519 12.06716,-0.6704h0.6704c2.34638,0 5.02797,1.00559 6.70397,2.68159c1.34081,1.34081 2.3464,3.01678 2.68159,5.02799h0.6704c1.00559,0 1.676,0 2.68159,0.33519c1.34081,-1.676 3.352,-2.68159 5.36319,-3.01678c1.676,-2.34638 4.69278,-4.35759 8.04478,-4.35759h8.71518c1.676,-2.01119 4.0224,-3.352 7.03918,-3.352h10.72637c5.02799,0 9.05037,4.02238 9.38557,9.05037c0,3.68719 -2.01119,7.03918 -5.02799,8.37997v20.44713c2.68159,1.34081 4.69278,4.35759 5.02799,7.70959c0.33519,5.02799 -3.68719,9.38557 -8.71518,9.72078z" fill="url(#color-3)"/><path d="M241.73241,178.15636l-6.70397,1.00559l2.34638,-12.06716z" fill="#f9a83a"/><path d="M157.26226,178.82677c4.02238,0.6704 12.40237,2.01119 12.40237,10.39116c0,2.34638 -1.34079,5.02799 -3.352,6.70397c-2.34638,2.01119 -5.36319,3.01678 -8.37997,2.3464c-2.34638,-0.33519 -4.35759,-1.34081 -5.69838,-2.3464v3.68719c0,1.00559 -1.00559,2.01119 -2.01119,2.01119c-1.00559,0 -2.01119,-1.00559 -2.01119,-2.01119c0,-0.33519 -0.33519,-3.352 0,-7.37438c0.33519,-2.34638 0.33519,-6.36878 0.33519,-6.36878c0,-1.00559 1.00559,-2.01119 2.01119,-2.01119c1.00559,0 2.01119,1.00559 2.01119,2.01119v0.6704c0,1.00559 0.33519,2.68159 0.6704,4.02238c0.6704,1.34081 2.68159,2.3464 3.352,2.68159c0.6704,0 1.00559,0.33519 1.676,0.33519c2.01119,0.33519 4.02238,0 5.36319,-1.34081c1.34081,-1.00559 2.01119,-2.34638 2.01119,-3.68719c0,-3.352 -3.68719,-4.35759 -9.05037,-5.36319c-5.02799,-1.00559 -7.03918,-5.02799 -6.36878,-11.39678v-0.6704c0.33519,-3.352 1.00559,-9.05037 7.37438,-8.04478c2.34638,0 4.35759,1.676 6.03359,3.352v-3.68719c0,-1.00559 1.00559,-2.01119 2.01119,-2.01119c1.00559,0 2.01119,1.00559 2.01119,2.01119c0,0.33519 -0.6704,13.07275 -0.6704,13.07275c-0.33519,1.00559 -1.34081,2.01119 -2.3464,1.676c-1.00559,-0.33519 -1.676,-1.00559 -1.676,-1.676v-1.34079c-0.33519,-1.00559 -0.33519,-2.01119 -1.00559,-3.352c-0.6704,-2.01119 -2.01119,-3.01678 -2.68159,-3.68719c-0.6704,-0.6704 -1.34079,-1.00559 -2.01119,-1.00559c-2.01119,0 -2.34638,1.00559 -3.01678,5.02799v0.6704c-0.6704,4.69278 0.6704,6.36878 3.01678,6.70397M213.57569,173.12839c1.00559,-1.34081 1.676,-2.68159 1.676,-3.352v-0.6704c-1.00559,-1.676 -5.69838,-2.01119 -11.06156,-2.01119v9.38557c2.01119,-0.33519 4.02238,-0.6704 5.36319,-1.34079l1.00559,-0.33519c0.33519,0 1.34081,-0.33519 1.676,-0.6704c0.6704,-0.33519 1.00559,-0.6704 1.34081,-1.00559M225.30766,191.22914c1.00559,0.33519 1.676,1.34081 0.33519,2.01119c-0.6704,3.01678 -2.01119,4.02238 -3.68719,5.02799c-2.01119,1.00559 -3.68719,0.33519 -5.02799,0c-1.676,-0.6704 -2.68159,-2.3464 -3.01678,-3.01678c-0.6704,-1.676 -1.00559,-5.69838 -1.00559,-6.70397c-0.33519,-5.02799 -1.00559,-7.03918 -1.676,-8.04478c-0.33519,-0.6704 -1.00559,-1.00559 -1.676,-1.00559h-0.6704c-1.676,0.6704 -3.352,1.00559 -5.36319,1.34079v11.73197l3.01678,-0.33519c1.00559,-0.33519 2.3464,0.6704 2.3464,1.676c0.33519,1.00559 -0.6704,2.3464 -1.676,2.3464l-9.72078,1.34081c-1.00559,0.33519 -2.34638,-0.6704 -2.34638,-1.676c-0.33519,-1.00559 0.6704,-2.34638 1.676,-2.34638l2.68159,-0.33519v-11.73197h-1.00559c-1.00559,0 -2.01119,-1.00559 -2.01119,-2.01119c0,-1.00559 1.00559,-2.01119 2.01119,-2.01119h1.00559v-9.38557c-1.00559,0 -2.01119,0.33519 -3.01678,0.33519c-1.00559,0.33519 -2.34638,-0.6704 -2.34638,-1.676c-0.33519,-1.00559 0.6704,-2.34638 1.676,-2.34638c4.69278,-0.6704 19.10634,-2.3464 22.45834,3.352c1.34081,2.34638 0.6704,5.02799 -1.676,8.37997c0,0 -1.00559,1.00559 -2.01119,1.676c1.676,1.676 3.01678,5.02799 3.01678,11.06156c0,1.676 0.33519,4.35759 0.6704,5.02797c0.33519,0.33519 0.6704,1.00559 0.6704,1.00559c1.00559,0.33519 1.676,0.6704 2.01119,0.33519c0.33519,-0.33519 1.00559,-0.33519 1.676,-2.68159c0.33519,-1.00559 1.676,-1.676 2.68159,-1.34081M298.38106,184.86036c1.00559,0 2.01119,0.6704 2.01119,1.34081v3.352c-0.33519,0.6704 -0.6704,3.01678 -1.34081,4.35759c-0.6704,1.00559 -1.00559,1.676 -1.676,2.3464c-1.00559,1.00559 -2.01119,1.676 -3.01678,2.01119c-1.34081,0.6704 -2.68159,0.6704 -4.02238,0.6704h-1.00559c-7.37438,0 -9.72078,-6.03359 -10.05597,-9.05037v-9.38557c0.33519,-5.02799 2.01119,-8.04478 4.35759,-9.72078c3.01678,-2.01119 7.03918,-0.33521 8.04478,0.33519c1.00559,0.6704 2.01119,1.00559 2.68159,1.676v-3.68719c0,-1.00559 1.00559,-2.01119 2.01119,-2.01119c1.00559,0 2.01119,1.00559 2.01119,2.01119v9.05037c0,1.00559 -0.33519,1.676 -1.34081,2.01119c-1.00559,0 -2.01119,-0.33519 -2.34638,-1.00559c-0.33519,0 -2.01119,-3.01678 -4.69278,-4.02238c-2.34638,-0.6704 -3.68719,-1.00559 -4.69278,-0.33519c-1.34081,1.00559 -2.01119,3.352 -2.3464,6.70397v8.71518c0,1.00559 0.6704,5.36319 6.03359,5.02799h1.34081c1.34081,0 1.676,0 2.34638,-0.33519c0.6704,-0.33519 1.34081,-0.6704 1.676,-1.00559c0.6704,-0.6704 1.00559,-1.00559 1.34081,-1.676c0.33519,-0.33519 0.6704,-1.676 0.6704,-2.68159v-2.68159c0,-1.00559 1.00559,-2.01119 2.01119,-2.01119M331.56575,198.26832c0,1.00559 -0.6704,2.01119 -1.676,2.68159c-4.69278,0.33519 -8.71518,0.6704 -9.72078,1.34081c-1.34081,0.33519 -2.34638,0.6704 -3.01678,0c-1.00559,-0.6704 -1.00559,-2.01119 -0.33519,-2.68159c1.00559,-1.34081 3.01678,-1.34079 5.69838,-2.01119v-15.41916l-12.06716,2.01119v10.39116h3.352c1.00559,0 2.01119,1.00559 2.01119,2.01119c0,1.00559 -1.00559,2.01119 -2.01119,2.01119l-11.06156,-0.33519c-1.00559,0 -2.01119,-1.00559 -2.01119,-2.01119c0,-1.00559 1.00559,-2.01119 2.01119,-2.01119h3.352v-27.15112h-3.352c-1.00559,0 -2.01119,-1.00559 -2.01119,-2.01119c0,-1.00559 1.00559,-2.01119 2.01119,-2.01119h10.72637c1.00559,0 2.01119,1.00559 2.01119,2.01119c0,1.00559 -1.00559,2.01119 -2.01119,2.01119h-3.352v12.73756l12.06716,-2.01119v-14.07837h-3.352c-1.00559,0 -2.01119,-1.00559 -2.01119,-2.01119c0,-1.00559 1.00559,-2.01119 2.01119,-2.01119l10.72637,-0.33519c1.00559,0 2.01119,1.00559 2.01119,2.01119c0,1.00559 -1.00559,2.01119 -2.01119,2.01119h-3.01678c0.33519,22.79353 0.33519,29.83272 0.33519,33.18471c1.00559,-0.33519 2.01119,-0.33519 2.68159,-0.33519c1.00559,0 2.01119,1.00559 2.01119,2.01119" fill="url(#color-4)"/><path d="M241.73241,178.15636l-4.35759,-11.06156l-2.34638,12.06716zM252.79398,182.51396c1.00559,-0.33519 2.01119,0.33519 2.3464,1.00559c0.33519,1.00559 -0.33519,2.34638 -1.34081,2.68159c-3.68719,1.34081 -7.37438,3.01678 -8.37997,4.35759c-0.6704,0.6704 -2.01119,1.00559 -3.01678,0.33519c-0.6704,-0.6704 -1.00559,-1.676 -0.33519,-2.68159c1.00559,-1.00559 1.676,-1.34081 3.352,-2.3464l-2.01119,-5.02799l-9.38557,1.676l-0.33519,3.01678c1.34081,0 2.01119,1.00559 2.01119,2.01119c0,1.34081 -1.00559,2.01119 -2.01119,2.01119l-10.05597,-0.33519c-1.34081,0 -2.01119,-1.00559 -2.01119,-2.01119c0,-1.34081 1.00559,-2.01119 2.01119,-2.01119l6.03359,0.33519c1.00559,-4.69278 4.02238,-19.77675 4.69278,-23.46393c-2.68159,0.33519 -6.03359,0.6704 -6.03359,0.6704c-1.34081,0.33519 -2.34638,-0.6704 -2.34638,-1.676c-0.33519,-1.34081 0.6704,-2.3464 1.676,-2.3464l8.71518,-1.00559c0.6704,0 1.34079,0.33519 1.676,0.6704c0.33519,0 0.6704,0.6704 0.6704,1.00559l7.70957,18.43594l2.68159,6.36878c2.01119,-1.00559 3.01678,-1.34081 3.68719,-1.676" fill="url(#color-5)"/><path d="M276.92831,162.06683c0.6704,0 1.34079,0.33519 1.34079,1.00559c0.6704,0.6704 0.6704,1.00559 0.6704,1.676c-0.33519,2.68159 -0.33519,7.37438 -0.33519,7.37438c0,0.6704 -0.33519,1.676 -1.00559,2.01119c-1.00559,0.6704 -2.01119,0.33519 -2.68159,-0.6704c0,-0.33519 -0.33519,-1.00559 -0.33519,-3.01678v-4.0224c-2.01119,0 -5.02799,0.33519 -8.37997,0.33519v26.48072h4.02238c1.00559,0 2.01119,1.00559 2.01119,2.01119c0,1.00559 -1.00559,2.01119 -2.01119,2.01119l-12.40237,0.33519c-1.00559,0 -2.01119,-1.00559 -2.01119,-2.01119c0,-1.00559 1.00559,-2.01119 2.01119,-2.01119h4.35759v-26.48072h-8.71518c0.6704,2.68159 1.34081,8.04478 1.34081,8.04478c0,1.00559 -0.6704,2.01119 -1.676,2.01119c-1.00559,0.33519 -2.3464,-0.6704 -2.3464,-1.676l-1.676,-10.05597c-0.33519,-0.6704 0,-1.34081 0.33519,-1.676c0.6704,-0.33519 1.00559,-0.6704 1.676,-0.6704l13.07277,-0.33519c6.70397,-0.33519 12.73756,-0.6704 12.73756,-0.6704M191.45257,186.87155c1.00559,0 2.01119,1.00559 2.01119,1.676v3.352c-0.33519,0.6704 -0.6704,3.01678 -1.34081,4.35759c-0.6704,1.00559 -1.00559,1.676 -1.676,2.34638c-1.00559,1.00559 -2.01119,1.676 -3.01678,2.01119c-1.34081,0.6704 -2.68159,0.6704 -4.02238,0.6704h-1.00559c-7.70957,0 -10.05597,-6.03359 -10.39116,-9.05037v-9.38557c0.33519,-5.02799 2.01119,-8.04478 4.35759,-9.72078c3.352,-1.676 7.03918,-0.33519 8.37997,0.33519c1.00559,0.33519 2.01119,1.00559 2.68159,1.676v-3.68719c0,-1.00559 1.00559,-2.01119 2.01119,-2.01119c1.00559,0 2.01119,1.00559 2.01119,2.01119v9.05037c0,1.00559 -0.33519,1.676 -1.34079,2.01119c-1.00559,0 -2.01119,-0.33519 -2.3464,-1.00559c0,0 -2.01119,-3.01678 -4.69278,-4.02238c-2.34638,-0.6704 -3.68719,-1.00559 -4.69278,-0.33519c-1.34081,1.00559 -2.01119,3.352 -2.34638,6.70397v8.71518c0,1.00559 0.6704,5.02799 6.03359,5.02799h1.34081c1.34081,0 1.676,0 2.3464,-0.33519c0.6704,-0.33519 1.34079,-0.6704 1.676,-1.00559c0.6704,-0.6704 1.00559,-1.00559 1.34081,-1.676c0.33519,-0.6704 0.6704,-2.01119 0.6704,-2.68159v-3.01678c0,-1.00559 1.00559,-2.01119 2.01119,-2.01119" fill="url(#color-6)"/></g></g></g></svg>