<svg version="1.1" xmlns="http://www.w3.org/2000/svg" xmlns:xlink="http://www.w3.org/1999/xlink" width="375.06551" height="108.72605" viewBox="0,0,375.06551,108.72605"><defs><linearGradient x1="240" y1="125.63699" x2="240" y2="234.36304" gradientUnits="userSpaceOnUse" id="color-1"><stop offset="0" stop-color="#ffffff"/><stop offset="1" stop-color="#dbdbdb"/></linearGradient></defs><g transform="translate(-52.46725,-125.63698)"><g data-paper-data="{&quot;isPaintingLayer&quot;:true}" fill-rule="nonzero" stroke="none" stroke-width="1" stroke-linecap="butt" stroke-linejoin="miter" stroke-miterlimit="10" stroke-dasharray="" stroke-dashoffset="0" style="mix-blend-mode: normal"><path d="M427.53276,217.25029c0,9.45029 -7.66444,17.11274 -17.11274,17.11274h-340.84202c-9.45029,0 -17.11075,-7.66444 -17.11075,-17.11274v-74.50256c0,-9.45029 7.66046,-17.11075 17.11075,-17.11075h340.84003c9.45427,0 17.11274,7.66046 17.11274,17.11075v74.50256z" fill="url(#color-1)"/><g><path d="M182.27252,170.59558c0.16261,3.68589 -1.89715,7.10075 -5.25781,8.72688c4.76997,1.3009 8.07643,5.74565 7.85961,10.73243c0,7.85961 -6.01667,12.62958 -15.39399,12.62958h-16.04444v-43.8512h14.90616c8.13063,0 13.87628,4.39054 13.93048,11.76231zM169.15511,183.17096h-8.29324v13.06321h8.29324c4.87838,0 8.07643,-2.33078 8.07643,-6.61291c0,-4.01111 -3.25225,-6.4503 -8.07643,-6.4503zM167.8542,165.22936h-6.99234v11.70811h6.99234c4.06532,0 6.99234,-2.16817 6.99234,-5.90826c0,-3.74009 -2.92703,-5.79985 -6.99234,-5.79985z" fill="#000000"/><path d="M377.08243,158.83326v17.56216c2.49339,-3.25225 6.34189,-5.2036 10.46141,-5.1494c8.51006,0 15.06877,6.93814 15.06877,16.09865c0,8.9979 -6.55871,16.09865 -15.06877,16.09865c-4.11952,0.10841 -7.96802,-1.73453 -10.46141,-4.98679v4.22793h-7.26336v-43.8512zM376.81141,187.6157c0,5.0952 4.17372,9.26892 9.26892,9.26892c0.10841,0 0.16261,0 0.27102,0c5.0952,-0.16261 9.16051,-4.44474 8.9979,-9.53994c0,-0.0542 0,-0.16261 0,-0.21682c0,-5.1494 -4.17372,-9.32312 -9.26892,-9.32312c-0.10841,0 -0.16261,0 -0.27102,0c-5.0952,0.16261 -9.16051,4.44474 -8.9979,9.53994c-0.0542,0.10841 -0.0542,0.16261 0,0.27102z" fill="#000000"/><path d="M288.62117,202.68447v-4.39054c-2.49339,3.30646 -6.34189,5.2036 -10.46141,5.1494c-8.45586,0 -15.06877,-6.99234 -15.06877,-16.09865c0,-8.9979 6.55871,-16.09865 15.06877,-16.09865c4.28213,0 8.23904,1.84294 10.46141,4.98679v-17.39955h7.20916v43.8512zM279.62327,196.83042c5.0952,0 9.26892,-4.17372 9.26892,-9.26892c0,-0.10841 0,-0.16261 0,-0.27102c0.10841,-5.0952 -3.9027,-9.37733 -9.0521,-9.48574c-0.0542,0 -0.16261,0 -0.21682,0c-5.0952,0 -9.26892,4.17372 -9.26892,9.26892c0,0.10841 0,0.16261 0,0.27102c-0.16261,5.0952 3.9027,9.37733 8.9979,9.53994c0.10841,0 0.21682,0 0.27102,-0.0542z" fill="#000000"/><path d="M362.60991,202.68447h-7.15495v-4.49895c-2.43919,3.30646 -6.34189,5.25781 -10.46141,5.2036c-8.45586,0 -15.06877,-7.04655 -15.06877,-16.09865c0,-9.0521 6.55871,-16.09865 15.06877,-16.09865c4.28213,0 8.23904,1.73453 10.46141,4.98679v-4.22793h7.15495zM346.45706,196.83042c5.0952,0 9.26892,-4.17372 9.26892,-9.26892c0,-0.10841 0,-0.16261 0,-0.27102c0.10841,-5.0952 -3.9027,-9.37733 -9.0521,-9.48574c-0.0542,0 -0.16261,0 -0.21682,0c-5.1494,0 -9.26892,4.17372 -9.26892,9.32312c0,0.0542 0,0.16261 0,0.21682c-0.16261,5.0952 3.9027,9.37733 8.9979,9.53994c0.10841,0 0.21682,0 0.27102,-0.0542z" fill="#000000"/><path d="M221.67898,172.00489v30.67958h-7.15495v-4.49895c-2.43919,3.30646 -6.34189,5.25781 -10.46141,5.2036c-8.45586,0 -15.06877,-7.04655 -15.06877,-16.09865c0,-9.0521 6.55871,-16.09865 15.06877,-16.09865c4.28213,0 8.23904,1.73453 10.46141,4.98679v-4.22793zM205.58033,196.83042c5.0952,0 9.26892,-4.17372 9.26892,-9.26892c0,-0.10841 0,-0.16261 0,-0.27102c0.16261,-5.0952 -3.9027,-9.37733 -8.9979,-9.53994c-0.10841,0 -0.16261,0 -0.27102,0c-5.2036,0 -9.26892,4.22793 -9.26892,9.53994c-0.16261,5.0952 3.9027,9.37733 8.9979,9.53994c0.0542,0.0542 0.16261,0.0542 0.27102,0z" fill="#000000"/><path d="M228.94234,172.00489h7.26336v4.01111c2.11396,-3.14384 5.69144,-4.98679 9.48574,-4.82417c7.48018,0 11.97913,5.04099 11.97913,13.00901v18.48363h-7.26336v-17.07432c0,-4.76997 -2.49339,-7.64279 -6.88393,-7.64279c-4.44474,0 -7.26336,3.30646 -7.26336,8.56426v16.15285h-7.31757z" fill="#000000"/><path d="M328.51547,195.63792v7.04655h-24.22928v-43.8512h7.58859v36.80465z" fill="#000000"/><path d="M125.14129,165.33776l4.66062,8.03457l4.17466,7.19681c1.68033,3.03544 2.65601,6.4503 2.76441,9.97357c0,11.11186 -8.78108,19.13408 -21.19384,19.13408h-16.96592c-12.46697,0 -21.19384,-8.02222 -21.19384,-19.13408c0.10841,-3.46907 1.02988,-6.88393 2.71021,-9.97357l8.83529,-15.23138h8.29324l-10.353,17.94159c-1.2467,2.16817 -1.95135,4.60736 -2.05976,7.10075c0,7.10075 4.82417,12.08754 13.98468,12.08754h16.47808c9.16051,0 13.98468,-5.04099 13.98468,-12.08754c-0.0542,-2.49339 -0.75886,-4.93258 -2.05976,-7.10075l-10.2988,-17.94159z" fill="#f12c18"/><path d="M97.98498,188.26615c0,-4.44474 4.49895,-8.29324 9.48574,-9.37733l-11.5997,-28.56562h20.21817l3.68589,7.15495h-14.1473l8.45586,20.5976c0.70465,1.62613 1.13829,3.41486 1.13829,5.1494c-0.0542,6.12508 -6.12508,10.56982 -10.94925,10.56982c-3.9027,0 -6.28769,-2.33078 -6.28769,-5.52883z" fill="#f12c18"/></g></g></g></svg>